<svg width="24" height="24" viewBox="0 0 24 24" fill="none" xmlns="http://www.w3.org/2000/svg">
<path d="M20.4802 4.70465L18.9351 22.0139L11.9898 23.9394L5.06353 22.0166L3.52002 4.70465H20.4802Z" fill="#E44D26"/>
<path d="M12 22.4676L17.6122 20.9117L18.9325 6.12012H12V22.4676Z" fill="#F16529"/>
<path d="M8.9962 10.3666H11.9999V8.24341H6.67578L6.72657 8.81303L7.24846 14.6641H11.9999V12.5409H9.19026L8.9962 10.3666ZM9.47474 15.7258H7.34333L7.64077 19.0596L11.9901 20.2669L11.9999 20.2642V18.0552L11.9906 18.0576L9.62592 17.4191L9.47474 15.7258Z" fill="#EBEBEB"/>
<path d="M5.09766 0H6.17666V1.06604H7.16372V0H8.24279V3.22823H7.16378V2.14724H6.17673V3.22823H5.09772L5.09766 0ZM9.66165 1.07056H8.71188V0H11.6912V1.07056H10.7408V3.22823H9.66185V1.07056H9.66165ZM12.164 0H13.2891L13.9812 1.13432L14.6726 0H15.7981V3.22823H14.7235V1.62814L13.9812 2.77596H13.9626L13.2198 1.62814V3.22823H12.164V0ZM16.3351 0H17.4144V2.1612H18.9318V3.22823H16.335V0H16.3351Z" fill="black"/>
<path d="M11.9927 14.6641H14.6073L14.3608 17.4178L11.9927 18.0569V20.2659L16.3455 19.0596L16.3774 18.7008L16.8764 13.111L16.9282 12.5409H11.9927V14.6641ZM11.9927 10.3615V10.3666H17.1214L17.1639 9.88944L17.2607 8.81303L17.3114 8.24341H11.9927V10.3615Z" fill="white"/>
</svg>
