<svg width="24" height="24" viewBox="0 0 24 24" fill="none" xmlns="http://www.w3.org/2000/svg">
<g clip-path="url(#clip0_3468_6681)">
<path fill-rule="evenodd" clip-rule="evenodd" d="M6.53313 8.02657L7.60868 9.38808L2.66301 12.1675L7.84807 13.7359L7.36201 15.3458L0.466797 13.2154L0.480041 10.9718L6.56848 7.9989" fill="black"/>
<path d="M6.51795 8.00207C6.87968 8.54739 7.24016 9.01626 7.57861 9.30758M6.51946 7.96233C6.91458 8.45876 7.26348 9.00729 7.52981 9.36213M7.6322 9.31185C6.22074 10.1631 4.9478 10.9503 2.69619 12.0268M7.55506 9.33213C6.00899 10.3003 4.42177 11.1374 2.73796 12.0895M2.6661 12.1286C4.61333 12.6153 6.31123 13.1932 7.7819 13.8038M2.68344 12.0734C4.20839 12.5816 5.70088 13.0683 7.85454 13.7432M7.83027 13.768C7.74024 14.212 7.50766 14.6598 7.33389 15.3923M7.87799 13.704C7.63377 14.3964 7.41465 15.1024 7.31059 15.3853M7.29552 15.3824C5.45265 14.7323 3.79939 14.2421 0.532097 13.0906M7.30972 15.4286C5.04583 14.7469 2.80609 13.9557 0.493323 13.1292M0.465739 13.1178C0.448301 12.5414 0.491355 11.7978 0.485255 10.929M0.483575 13.1256C0.408568 12.3487 0.466046 11.583 0.489111 11.015M0.408203 10.9539C2.02809 10.0727 3.69029 9.37446 6.60636 7.94617M0.491355 11.0388C2.33993 9.99722 4.19709 9.09714 6.56737 7.95257" stroke="black"/>
<path fill-rule="evenodd" clip-rule="evenodd" d="M17.0569 7.92571L16.0118 9.42933L21.2364 12.113L15.7793 13.6701L16.3714 15.4771L23.6092 13.1719L23.4787 11.0422L17.0691 7.9082" fill="black"/>
<path d="M17.1699 7.94061C16.8442 8.36073 16.7253 8.61135 16.0803 9.32526M17.1739 7.94818C16.6702 8.48034 16.2755 9.06322 16.051 9.39145M16.0804 9.32939C17.4992 10.1552 18.9534 10.9057 21.2684 12.0253M16.0937 9.35568C17.354 10.0573 18.6525 10.7315 21.2268 12.1043M21.26 12.1678C19.8841 12.4507 18.5199 12.7768 15.6849 13.7159M21.1714 12.0778C19.6811 12.5234 18.1732 13.0214 15.7435 13.7745M15.6797 13.7774C15.8785 14.3876 16.1403 14.9207 16.2393 15.469M15.7204 13.7687C15.9312 14.3449 16.2003 14.9013 16.2764 15.4025M16.3007 15.4336C18.4739 14.7132 20.6397 14.097 23.4944 13.0838M16.324 15.3938C17.9608 14.8794 19.6272 14.4152 23.5199 13.1718M23.5129 13.2005C23.5566 12.653 23.5429 12.1476 23.5875 11.0763M23.5332 13.152C23.6047 12.5907 23.6177 12.09 23.5303 11.0358M23.5461 10.9398C20.959 9.88782 18.4074 8.58778 17.1998 8.00026M23.5369 10.9817C22.1523 10.4434 20.8716 9.77386 17.1381 7.94425" stroke="black"/>
<path fill-rule="evenodd" clip-rule="evenodd" d="M8.25391 19.7564L12.8345 3.51923L15.171 3.39844L10.6908 19.7584L8.29491 19.7073" fill="#228BE6"/>
<path d="M8.28882 19.8113C9.3962 16.1335 10.426 12.5734 12.8473 3.41971M8.30745 19.7962C9.67548 15.1245 10.9792 10.4959 12.8923 3.46563M12.8798 3.48962C13.523 3.40597 14.3492 3.38877 15.1732 3.44832M12.852 3.40851C13.4226 3.44396 13.916 3.4752 15.1948 3.45304M15.1238 3.41457C13.7904 8.10807 12.5899 12.7892 10.7229 19.7969M15.1732 3.4269C13.4661 9.6893 11.776 15.8988 10.7171 19.8262M10.6977 19.7501C10.096 19.7305 9.55913 19.797 8.24609 19.7791M10.7005 19.8604C9.83833 19.7582 8.90377 19.751 8.26946 19.7907" stroke="black"/>
</g>
<defs>
<clipPath id="clip0_3468_6681">
<rect width="24" height="17.2687" fill="white" transform="translate(0 3)"/>
</clipPath>
</defs>
</svg>
