<svg width="24" height="24" viewBox="0 0 24 24" fill="none" xmlns="http://www.w3.org/2000/svg">
<path d="M11.9264 20.3267C14.2547 20.3267 16.4877 19.4018 18.1341 17.7554C19.7804 16.109 20.7054 13.8761 20.7054 11.5477C20.7054 9.21943 19.7804 6.98647 18.1341 5.34009C16.4877 3.69372 14.2547 2.7688 11.9264 2.7688C9.59809 2.7688 7.36513 3.69372 5.71876 5.34009C4.07238 6.98647 3.14746 9.21943 3.14746 11.5477C3.14746 13.8761 4.07238 16.109 5.71876 17.7554C7.36513 19.4018 9.59809 20.3267 11.9264 20.3267Z" fill="#FFD21E"/>
<path d="M20.7066 11.5478C20.7066 9.21951 19.7817 6.98655 18.1353 5.34018C16.4889 3.69381 14.256 2.76889 11.9277 2.76889C9.59934 2.76889 7.36638 3.69381 5.72 5.34018C4.07363 6.98655 3.14871 9.21951 3.14871 11.5478C3.14871 13.8762 4.07363 16.1091 5.72 17.7555C7.36638 19.4019 9.59934 20.3268 11.9277 20.3268C14.256 20.3268 16.4889 19.4019 18.1353 17.7555C19.7817 16.1091 20.7066 13.8762 20.7066 11.5478ZM2.13818 11.5478C2.13818 10.2623 2.3914 8.98928 2.88336 7.80157C3.37533 6.61385 4.09642 5.53467 5.00545 4.62563C5.91449 3.7166 6.99367 2.99551 8.18139 2.50354C9.3691 2.01157 10.6421 1.75836 11.9277 1.75836C13.2132 1.75836 14.4862 2.01157 15.6739 2.50354C16.8616 2.99551 17.9408 3.7166 18.8499 4.62563C19.7589 5.53467 20.48 6.61385 20.972 7.80157C21.4639 8.98928 21.7171 10.2623 21.7171 11.5478C21.7171 14.1442 20.6857 16.6342 18.8499 18.47C17.014 20.3059 14.524 21.3373 11.9277 21.3373C9.33133 21.3373 6.84134 20.3059 5.00545 18.47C3.16957 16.6342 2.13818 14.1442 2.13818 11.5478Z" fill="#FF9D0B"/>
<path d="M14.7787 9.15983C15.1021 9.27098 15.2284 9.93288 15.5543 9.76109C15.7749 9.64393 15.9559 9.46396 16.0743 9.24394C16.1927 9.02391 16.2432 8.77373 16.2194 8.52502C16.1955 8.27631 16.0985 8.04025 15.9405 7.84669C15.7825 7.65313 15.5707 7.51077 15.3318 7.43762C15.0929 7.36447 14.8377 7.3638 14.5984 7.43571C14.3591 7.50762 14.1465 7.64888 13.9875 7.84161C13.8286 8.03434 13.7303 8.2699 13.7052 8.51848C13.6801 8.76706 13.7292 9.01751 13.8465 9.23814C14.0006 9.52867 14.4907 9.05625 14.7812 9.1573L14.7787 9.15983ZM8.82922 9.15983C8.50585 9.27098 8.37701 9.93288 8.05364 9.76109C7.83297 9.64393 7.65199 9.46396 7.53361 9.24394C7.41523 9.02391 7.36475 8.77373 7.38856 8.52502C7.41238 8.27631 7.50942 8.04025 7.6674 7.84669C7.82539 7.65313 8.03723 7.51077 8.27613 7.43762C8.51503 7.36447 8.77025 7.3638 9.00953 7.43571C9.2488 7.50762 9.46138 7.64888 9.62037 7.84161C9.77936 8.03434 9.87763 8.2699 9.90273 8.51848C9.92784 8.76706 9.87867 9.01751 9.76143 9.23814C9.60733 9.52867 9.11469 9.05625 8.82669 9.1573L8.82922 9.15983Z" fill="#3A3B45"/>
<path d="M11.8642 15.2212C14.3476 15.2212 15.1484 13.0081 15.1484 11.8713C15.1484 11.2801 14.7518 11.467 14.1152 11.7803C13.5265 12.0708 12.7358 12.4725 11.8667 12.4725C10.0503 12.4725 8.58252 10.7344 8.58252 11.8713C8.58252 13.0081 9.38084 15.2212 11.8667 15.2212H11.8642Z" fill="#FF323D"/>
<path fill-rule="evenodd" clip-rule="evenodd" d="M9.96051 14.6421C10.0938 14.3712 10.2815 14.1307 10.5119 13.9355C10.7422 13.7404 11.0103 13.5948 11.2995 13.5078C11.4005 13.4775 11.5041 13.6518 11.6127 13.8312C11.7138 14.0029 11.8199 14.1773 11.926 14.1773C12.0397 14.1773 12.1534 14.0055 12.262 13.8362C12.3757 13.6594 12.4868 13.4876 12.5955 13.5204C13.1382 13.6927 13.5917 14.0709 13.8586 14.5739C14.8009 13.8312 15.147 12.6185 15.147 11.8707C15.147 11.2796 14.7504 11.4665 14.1138 11.7798L14.0784 11.7975C13.4948 12.088 12.7167 12.472 11.8628 12.472C11.0089 12.472 10.2333 12.088 9.64724 11.7975C8.9904 11.4716 8.57861 11.2669 8.57861 11.8707C8.57861 12.6413 8.94746 13.9069 9.96051 14.6421Z" fill="#3A3B45"/>
<path d="M17.8632 10.3478C18.0809 10.3478 18.2898 10.2613 18.4438 10.1073C18.5977 9.95334 18.6842 9.7445 18.6842 9.52674C18.6842 9.30898 18.5977 9.10015 18.4438 8.94617C18.2898 8.79219 18.0809 8.70569 17.8632 8.70569C17.6454 8.70569 17.4366 8.79219 17.2826 8.94617C17.1286 9.10015 17.0421 9.30898 17.0421 9.52674C17.0421 9.7445 17.1286 9.95334 17.2826 10.1073C17.4366 10.2613 17.6454 10.3478 17.8632 10.3478ZM6.11583 10.3478C6.33358 10.3478 6.54242 10.2613 6.6964 10.1073C6.85037 9.95334 6.93688 9.7445 6.93688 9.52674C6.93688 9.30898 6.85037 9.10015 6.6964 8.94617C6.54242 8.79219 6.33358 8.70569 6.11583 8.70569C5.89807 8.70569 5.68923 8.79219 5.53525 8.94617C5.38128 9.10015 5.29477 9.30898 5.29477 9.52674C5.29477 9.7445 5.38128 9.95334 5.53525 10.1073C5.68923 10.2613 5.89807 10.3478 6.11583 10.3478ZM4.42572 13.1267C4.01646 13.1267 3.65267 13.2935 3.39751 13.5992C3.17993 13.8679 3.06131 14.2033 3.06151 14.5491C2.90244 14.5012 2.73749 14.4757 2.5714 14.4733C2.17983 14.4733 1.82614 14.6223 1.57604 14.8926C1.3529 15.1243 1.21222 15.423 1.17569 15.7426C1.13917 16.0622 1.20883 16.385 1.37393 16.6611C1.15035 16.8436 0.991732 17.0935 0.92172 17.3735C0.861089 17.6008 0.800457 18.0808 1.12383 18.571C1.0026 18.7573 0.930469 18.9713 0.914126 19.193C0.897784 19.4148 0.937765 19.637 1.03035 19.8392C1.28804 20.4253 1.93225 20.8851 3.18277 21.3802C3.95835 21.6884 4.67077 21.8855 4.67583 21.888C5.57579 22.1373 6.50342 22.2731 7.43709 22.2922C8.91751 22.2922 9.97604 21.8375 10.5849 20.9432C11.5651 19.5057 11.4261 18.1895 10.1554 16.9213C9.45562 16.219 8.98825 15.1857 8.89225 14.9583C8.69519 14.2863 8.17477 13.5385 7.3133 13.5385C7.08412 13.5422 6.85911 13.6004 6.65698 13.7085C6.45486 13.8166 6.28146 13.9714 6.15119 14.16C5.89856 13.8417 5.65098 13.5916 5.42867 13.4476C5.132 13.2467 4.78387 13.1354 4.42572 13.1267ZM4.42572 14.1373C4.55456 14.1373 4.71372 14.1928 4.88551 14.3015C5.42614 14.6451 6.46446 16.4312 6.84593 17.1259C6.97225 17.3583 7.19204 17.4568 7.38656 17.4568C7.77814 17.4568 8.0813 17.0703 7.42446 16.5777C6.43414 15.8375 6.78025 14.6274 7.25267 14.5541C7.27288 14.5491 7.29562 14.5491 7.3133 14.5491C7.74277 14.5491 7.93225 15.2893 7.93225 15.2893C7.93225 15.2893 8.48804 16.6838 9.44298 17.6387C10.3954 18.5912 10.4459 19.3566 9.75119 20.3747C9.27625 21.0695 8.3693 21.2792 7.43709 21.2792C6.47456 21.2792 5.48425 21.0518 4.93098 20.9103C4.90319 20.9027 1.53309 19.9503 1.96004 19.1419C2.03077 19.0055 2.14951 18.9499 2.29856 18.9499C2.89983 18.9499 3.99119 19.8442 4.46361 19.8442C4.56719 19.8442 4.64046 19.8013 4.6733 19.6926C4.87288 18.9726 1.62656 18.6695 1.8994 17.6286C1.94993 17.4442 2.07877 17.371 2.26319 17.371C3.05646 17.371 4.84004 18.768 5.21393 18.768C5.24172 18.768 5.26446 18.7604 5.27456 18.7427C5.46151 18.4396 5.35793 18.2274 4.03667 17.4291C2.72046 16.6307 1.7933 16.1507 2.31877 15.5773C2.3794 15.5116 2.4653 15.4813 2.5714 15.4813C3.37225 15.4813 5.26446 17.2042 5.26446 17.2042C5.26446 17.2042 5.77477 17.7347 6.08551 17.7347C6.15625 17.7347 6.21688 17.7095 6.2573 17.6387C6.47456 17.2699 4.22109 15.5621 4.09477 14.8573C4.00888 14.3773 4.1554 14.1373 4.42572 14.1373Z" fill="#FF9D0B"/>
<path d="M9.7509 20.3742C10.4456 19.3535 10.3951 18.5881 9.44269 17.6356C8.48774 16.6832 7.93195 15.2862 7.93195 15.2862C7.93195 15.2862 7.72479 14.4777 7.25237 14.5535C6.77995 14.6293 6.43385 15.8369 7.42416 16.5771C8.41195 17.3173 7.22711 17.8201 6.84564 17.1253C6.46669 16.4306 5.42585 14.6445 4.88521 14.3009C4.34711 13.9599 3.96816 14.1493 4.09448 14.8567C4.22079 15.5615 6.47679 17.2693 6.257 17.6356C6.03721 18.007 5.26416 17.2036 5.26416 17.2036C5.26416 17.2036 2.84648 15.0032 2.31848 15.5767C1.793 16.1502 2.72016 16.6302 4.03637 17.4285C5.35764 18.2268 5.46121 18.439 5.27427 18.7422C5.08479 19.0453 2.17195 16.5872 1.89911 17.6306C1.62627 18.6689 4.87258 18.9695 4.673 19.6895C4.4709 20.4095 2.38416 18.3304 1.95974 19.1388C1.53027 19.9497 4.9029 20.9022 4.93069 20.9097C6.017 21.1927 8.78332 21.7914 9.7509 20.3742Z" fill="#FFD21E"/>
<path d="M19.553 13.1265C19.9622 13.1265 20.3285 13.2933 20.5812 13.5989C20.7988 13.8677 20.9174 14.2031 20.9172 14.5488C21.0771 14.5008 21.2429 14.4753 21.4098 14.4731C21.8014 14.4731 22.1551 14.6221 22.4052 14.8924C22.6283 15.1241 22.769 15.4228 22.8055 15.7424C22.842 16.062 22.7724 16.3848 22.6073 16.6608C22.8299 16.8437 22.9876 17.0936 23.057 17.3733C23.1176 17.6006 23.1782 18.0806 22.8549 18.5707C22.9761 18.7571 23.0482 18.9711 23.0646 19.1928C23.0809 19.4146 23.0409 19.6368 22.9483 19.8389C22.6906 20.4251 22.0464 20.8848 20.7984 21.38C20.0203 21.6882 19.3079 21.8853 19.3029 21.8878C18.4029 22.1371 17.4753 22.2729 16.5416 22.292C15.0612 22.292 14.0026 21.8373 13.3938 20.9429C12.4136 19.5055 12.5525 18.1893 13.8233 16.9211C14.5256 16.2187 14.993 15.1855 15.089 14.9581C15.286 14.2861 15.8039 13.5383 16.6654 13.5383C16.8946 13.5419 17.1196 13.6002 17.3217 13.7083C17.5238 13.8164 17.6972 13.9712 17.8275 14.1598C18.0801 13.8415 18.3277 13.5914 18.5525 13.4474C18.8485 13.247 19.1957 13.1356 19.553 13.1265ZM19.553 14.1371C19.4241 14.1371 19.2675 14.1926 19.0932 14.3013C18.5551 14.6448 17.5142 16.4309 17.1328 17.1257C17.0813 17.2248 17.0037 17.308 16.9085 17.3663C16.8132 17.4247 16.7038 17.4559 16.5921 17.4566C16.2031 17.4566 15.8974 17.0701 16.5568 16.5775C17.5445 15.8373 17.1984 14.6272 16.726 14.5539C16.706 14.5506 16.6857 14.5489 16.6654 14.5488C16.2359 14.5488 16.0464 15.2891 16.0464 15.2891C16.0464 15.2891 15.4906 16.6836 14.5382 17.6385C13.5833 18.5909 13.5328 19.3564 14.23 20.3745C14.7024 21.0693 15.6119 21.2789 16.5416 21.2789C17.5066 21.2789 18.4944 21.0516 19.0502 20.9101C19.0755 20.9025 22.4481 19.9501 22.0212 19.1417C21.9479 19.0053 21.8317 18.9497 21.6826 18.9497C21.0814 18.9497 19.9875 19.844 19.5176 19.844C19.4115 19.844 19.3382 19.8011 19.3079 19.6924C19.1058 18.9724 22.3521 18.6693 22.0793 17.6284C22.0313 17.444 21.9024 17.3707 21.7155 17.3707C20.9222 17.3707 19.1386 18.7678 18.7648 18.7678C18.7395 18.7678 18.7168 18.7602 18.7066 18.7425C18.5197 18.4394 18.6208 18.2272 19.9395 17.4288C21.2608 16.6305 22.1879 16.1505 21.6574 15.5771C21.5993 15.5114 21.5134 15.4811 21.4098 15.4811C20.6064 15.4811 18.7142 17.204 18.7142 17.204C18.7142 17.204 18.2039 17.7345 17.8957 17.7345C17.861 17.7361 17.8265 17.7279 17.7962 17.711C17.7658 17.694 17.7408 17.6689 17.7239 17.6385C17.5041 17.2697 19.7576 15.5619 19.8839 14.8571C19.9698 14.3771 19.8233 14.1371 19.553 14.1371Z" fill="#FF9D0B"/>
<path d="M14.2306 20.3742C13.5358 19.3535 13.5838 18.5881 14.5388 17.6356C15.4912 16.6832 16.047 15.2862 16.047 15.2862C16.047 15.2862 16.2541 14.4777 16.7291 14.5535C17.199 14.6293 17.5451 15.8369 16.5573 16.5771C15.567 17.3173 16.7543 17.8201 17.1333 17.1253C17.5148 16.4306 18.5556 14.6445 19.0937 14.3009C19.6318 13.9599 20.0133 14.1493 19.8844 14.8567C19.7581 15.5615 17.5047 17.2693 17.7244 17.6356C17.9417 18.007 18.7148 17.2036 18.7148 17.2036C18.7148 17.2036 21.135 15.0032 21.6604 15.5767C22.1859 16.1502 21.2613 16.6302 19.9426 17.4285C18.6213 18.2268 18.5202 18.439 18.7047 18.7422C18.8941 19.0453 21.807 16.5872 22.0798 17.6306C22.3527 18.6689 19.1089 18.9695 19.3084 19.6895C19.5106 20.4095 21.5948 18.3304 22.0217 19.1388C22.4487 19.9497 19.0786 20.9022 19.0508 20.9097C17.9619 21.1927 15.1956 21.7914 14.2306 20.3742Z" fill="#FFD21E"/>
</svg>
