<svg width="24" height="24" viewBox="0 0 24 24" fill="none" xmlns="http://www.w3.org/2000/svg">
<g clip-path="url(#clip0_3637_6790)">
<path fill-rule="evenodd" clip-rule="evenodd" d="M11.3755 20.7376C11.2847 20.6286 11.1575 20.556 11.0486 20.4833C10.9578 20.4288 10.9214 20.3743 10.9396 20.2472C11.1212 19.1757 11.2847 18.1041 11.4481 17.0144C11.5571 16.288 11.666 15.5615 11.7932 14.7987C11.9566 14.9077 12.1201 15.0166 12.2654 15.1256C12.3017 15.1619 12.2835 15.2164 12.2835 15.2527C12.2472 15.507 12.2109 15.7794 12.1564 16.0337C12.0656 16.6149 11.9748 17.2142 11.884 17.7954C11.7932 18.3766 11.7024 18.9577 11.6116 19.5389C11.5934 19.6842 11.5752 19.8477 11.5389 19.993C11.6116 20.0111 11.6479 19.9566 11.7024 19.9385C13.0826 19.212 14.4629 18.5037 15.8431 17.7772C15.8794 17.7591 15.9158 17.7409 15.9521 17.7227C15.9884 17.7046 16.0247 17.6864 16.061 17.7227C16.2063 17.8135 16.3516 17.9225 16.5151 18.0315C16.4424 18.0678 16.4061 18.1041 16.3516 18.1223C14.7534 18.9577 13.1734 19.7932 11.5752 20.6286C11.5208 20.6468 11.4663 20.6649 11.4481 20.7194L11.3755 20.7376Z" fill="#060606"/>
<path fill-rule="evenodd" clip-rule="evenodd" d="M6.52631 10.9313C6.48999 11.2219 6.43551 11.4761 6.39919 11.7304C6.27206 12.5658 6.12677 13.3831 5.99964 14.2185C5.927 14.7089 5.83619 15.1993 5.76355 15.6896C5.74538 15.7804 5.70906 15.8168 5.63642 15.8349C5.49113 15.8712 5.32768 15.9257 5.18239 15.9802C5.16423 15.9439 5.18239 15.9076 5.18239 15.8712C5.32768 14.9632 5.47297 14.0732 5.61826 13.1652C5.76355 12.2934 5.89067 11.4035 6.03596 10.5317C6.05412 10.4591 6.07229 10.4046 6.16309 10.3864C6.29022 10.3501 6.39919 10.3138 6.52631 10.2774C6.59896 10.2411 6.65344 10.2593 6.72609 10.3138C7.03483 10.6225 7.34357 10.9313 7.65231 11.24C8.63301 12.2207 9.63187 13.2015 10.6126 14.164C10.6307 14.1822 10.6489 14.2185 10.6852 14.2367C10.5036 14.3093 10.322 14.3457 10.1585 14.4183C10.1041 14.4365 10.0677 14.382 10.0496 14.3638C9.81348 14.1277 9.57739 13.8916 9.32313 13.6555C8.41507 12.7656 7.52518 11.8757 6.63528 10.9857C6.59896 10.9857 6.5808 10.9676 6.52631 10.9313Z" fill="#060606"/>
<path fill-rule="evenodd" clip-rule="evenodd" d="M11.2482 13.7455C11.1029 13.6183 10.9758 13.4912 10.8486 13.3641C10.8123 13.3277 10.8305 13.2732 10.8486 13.2369C10.9576 12.91 11.0666 12.5831 11.1937 12.2562C11.5932 11.112 11.9928 9.96782 12.3923 8.82363C12.4105 8.78731 12.4287 8.73282 12.4287 8.6965C12.356 8.67834 12.3015 8.71466 12.247 8.73282C10.7578 9.20503 9.28678 9.65907 7.79756 10.1313C7.56147 10.2039 7.63411 10.2221 7.47066 10.0586C7.37985 9.96782 7.28905 9.87701 7.19824 9.7862C7.23456 9.73172 7.30721 9.73172 7.36169 9.71355C9.087 9.1687 10.8123 8.62385 12.5195 8.079C12.6466 8.04268 12.7192 8.06084 12.81 8.15165C12.8645 8.2243 12.9553 8.29694 13.028 8.36959C13.1006 8.42407 13.1006 8.49672 13.0825 8.56937C12.8827 9.11422 12.7011 9.65907 12.5013 10.2039C12.1018 11.3481 11.7022 12.4923 11.3027 13.6183C11.3027 13.6365 11.2845 13.691 11.2482 13.7455Z" fill="#060606"/>
<path fill-rule="evenodd" clip-rule="evenodd" d="M10.9409 14.8895C10.9045 15.0711 10.8864 15.2345 10.8682 15.4162C10.8682 15.4888 10.8137 15.4888 10.7592 15.507C10.3597 15.6341 9.97831 15.7612 9.59693 15.8702C8.47094 16.2334 7.32678 16.5785 6.20079 16.9417C6.16447 16.9599 6.10999 16.9781 6.0555 16.9962C6.09183 17.0507 6.14631 17.087 6.20079 17.1052C7.47207 17.977 8.74336 18.8669 10.0146 19.7386C10.1236 19.8113 10.1962 19.8839 10.1418 20.0292C10.1054 20.1564 10.1054 20.2835 10.0691 20.4106C10.0146 20.4106 9.97831 20.3743 9.94199 20.3561C8.45278 19.3391 6.96356 18.3039 5.47435 17.2868C5.38354 17.2142 5.34722 17.1597 5.36538 17.0325C5.38354 16.9236 5.41986 16.8328 5.41986 16.7238C5.41986 16.633 5.47435 16.5967 5.54699 16.5785C7.30862 16.0155 9.08842 15.4706 10.85 14.9076C10.8682 14.9076 10.9045 14.9076 10.9409 14.8895Z" fill="#060606"/>
<path fill-rule="evenodd" clip-rule="evenodd" d="M6.90755 3.75671C6.88939 3.93833 6.85307 4.11995 6.83491 4.2834C6.83491 4.35605 6.76226 4.35605 6.70778 4.35605C6.38088 4.46502 6.03582 4.55583 5.70891 4.6648C4.51028 5.02803 3.3298 5.39127 2.13117 5.7545C2.09484 5.77266 2.04036 5.77266 2.00404 5.82715C2.05852 5.86347 2.09484 5.89979 2.14933 5.93612C3.42061 6.82604 4.67373 7.73413 5.94501 8.62405C6.03582 8.6967 6.07214 8.75118 6.05398 8.87831C6.01765 9.02361 5.99949 9.15074 5.98133 9.29603C5.92685 9.27787 5.89053 9.24155 5.83604 9.22339C4.36499 8.18817 2.89393 7.15295 1.42288 6.11773C1.31391 6.04509 1.27759 5.97244 1.31391 5.86347C1.33208 5.7545 1.35024 5.66369 1.3684 5.55472C1.3684 5.48208 1.40472 5.44575 1.49553 5.40943C1.91323 5.2823 2.33094 5.15516 2.74865 5.02803C4.09257 4.62848 5.41834 4.21076 6.76226 3.8112C6.79858 3.77488 6.85307 3.77488 6.90755 3.75671Z" fill="#060606"/>
<path fill-rule="evenodd" clip-rule="evenodd" d="M12.3557 7.46143C12.2104 7.51591 12.0652 7.55224 11.9199 7.60672C11.8291 7.64305 11.7564 7.62488 11.6838 7.55224C11.1934 7.04371 10.6849 6.55334 10.1764 6.04482C9.57708 5.44548 8.97776 4.84614 8.36028 4.24681C8.32396 4.21048 8.3058 4.156 8.23315 4.13784C8.19683 4.31945 8.16051 4.51923 8.14235 4.70085C7.99706 5.55445 7.86993 6.40805 7.72464 7.24349C7.63383 7.78834 7.54303 8.31503 7.47038 8.85988C7.45222 8.95069 7.43406 8.98701 7.34326 9.00517C7.19797 9.0415 7.03452 9.09598 6.88923 9.15047C6.87107 9.0415 6.90739 8.95069 6.92555 8.87804C7.10716 7.75202 7.28877 6.62599 7.47038 5.49997C7.56119 4.90063 7.67016 4.30129 7.76096 3.70196C7.77912 3.62931 7.79728 3.59299 7.86993 3.57482C7.99706 3.5385 8.10602 3.50218 8.23315 3.46585C8.32396 3.42953 8.37844 3.44769 8.45109 3.52034C8.94144 4.01071 9.43179 4.50107 9.90398 4.97328C10.6849 5.75423 11.484 6.53518 12.2649 7.31614C12.2831 7.35246 12.3376 7.38878 12.3557 7.46143Z" fill="#060606"/>
<path fill-rule="evenodd" clip-rule="evenodd" d="M13.0224 15.1762C12.9496 14.9162 12.9117 14.6769 12.8932 14.4207C12.7779 13.4659 12.8788 12.5445 13.2501 11.6601C13.8199 10.2799 14.8018 9.25621 16.14 8.60335C16.7995 8.28534 17.5069 8.06172 18.2443 7.93122C18.2948 7.98937 18.2716 8.06058 18.2678 8.11493C18.2783 8.2249 18.2889 8.33487 18.2994 8.44484C18.3124 8.51858 18.2737 8.55228 18.1999 8.56533C17.7187 8.67733 17.235 8.82557 16.7838 9.03069C15.5631 9.56433 14.6314 10.3913 14.038 11.5878C13.6367 12.379 13.4685 13.2229 13.5151 14.1183C13.5349 14.3563 13.5547 14.5944 13.5925 14.8337C13.6056 14.9075 13.6018 14.9618 13.5087 14.9917C13.3599 15.0359 13.1918 15.097 13.0224 15.1762Z" fill="#060606"/>
<path fill-rule="evenodd" clip-rule="evenodd" d="M15.5406 16.9362C15.5533 16.755 15.5466 16.5907 15.5592 16.4095C15.5643 16.337 15.585 16.3021 15.6768 16.2903C16.1555 16.2145 16.6185 16.1013 17.0517 15.8949C18.6486 15.1873 19.6975 13.9862 20.1258 12.2866C20.3008 11.607 20.3308 10.9173 20.2703 10.2212C20.2728 10.185 20.2585 10.1293 20.261 10.0931C20.2661 10.0206 20.1999 9.92497 20.2581 9.87442C20.2981 9.8226 20.3887 9.82894 20.4624 9.81589C20.5918 9.78852 20.703 9.75989 20.8336 9.7144C20.8896 9.955 20.9081 10.2112 20.9098 10.448C20.9468 10.9603 20.9294 11.4689 20.8565 11.9918C20.6835 13.1631 20.1934 14.1847 19.386 15.0568C18.5204 15.9794 17.4434 16.5413 16.2236 16.8019C15.9999 16.8773 15.7787 16.9164 15.5406 16.9362Z" fill="#060606"/>
<path fill-rule="evenodd" clip-rule="evenodd" d="M20.8539 6.54898C20.9083 6.55278 20.9289 6.51781 20.9664 6.50223C21.7072 6.06246 22.4635 5.6602 23.2199 5.25794C23.2587 5.22424 23.3143 5.20992 23.3661 5.24996C23.5228 5.35195 23.6976 5.45521 23.8725 5.55846C23.8337 5.59216 23.7768 5.6246 23.7393 5.64018C22.7942 6.13848 21.8322 6.61739 20.8871 7.11569C20.8108 7.16497 20.7527 7.21552 20.6933 7.28419C20.346 7.8243 19.9794 8.38125 19.6321 8.92135C19.5702 9.02626 19.5702 9.02626 19.4653 8.9643C19.3604 8.90235 19.2736 8.84166 19.1687 8.77971C19.0638 8.71776 19.0638 8.71776 19.1245 8.63097C19.3491 8.28256 19.5737 7.93414 19.7983 7.58573C19.9403 7.37719 20.0643 7.16738 20.2063 6.95884C20.2463 6.90702 20.2695 6.83582 20.2746 6.76335C20.3299 5.71127 20.4021 4.67857 20.4756 3.62776C20.4794 3.57341 20.4819 3.53717 20.4857 3.48282C20.6269 3.54731 20.7474 3.64676 20.8885 3.71125C21.0465 3.79512 21.0764 3.88824 21.0637 4.06942C20.9987 4.7385 20.9506 5.42696 20.9037 6.09731C20.8936 6.24225 20.8653 6.38592 20.8539 6.54898Z" fill="#060606"/>
<path fill-rule="evenodd" clip-rule="evenodd" d="M16.9941 10.9937C16.9764 11.2473 16.6793 11.5907 16.4219 11.6273C16.2369 11.669 16.0777 11.6032 15.9597 11.4675C15.8418 11.3318 15.8169 11.1662 15.8827 11.007C15.9703 10.7947 16.1098 10.6223 16.3167 10.5276C16.4861 10.4484 16.6492 10.4598 16.7878 10.5605C16.9432 10.6806 17.0249 10.8138 16.9941 10.9937Z" fill="#060606"/>
<path fill-rule="evenodd" clip-rule="evenodd" d="M18.8385 12.1971C18.8208 12.4507 18.5237 12.7941 18.265 12.8488C18.08 12.8905 17.9389 12.826 17.8028 12.689C17.6849 12.5533 17.6588 12.4059 17.7245 12.2466C17.8135 12.0162 17.953 11.8439 18.178 11.7503C18.4986 11.5907 18.8626 11.8528 18.8385 12.1971Z" fill="#060606"/>
<path fill-rule="evenodd" clip-rule="evenodd" d="M0.878286 6.55371C1.04174 6.64452 1.16886 6.75349 1.33231 6.86246C1.3868 6.89878 1.36864 6.95327 1.35048 7.00775C1.29599 7.35283 1.24151 7.6979 1.18703 8.04297C0.987253 9.27797 0.78748 10.4948 0.587708 11.7298C0.587708 11.7661 0.551385 11.8206 0.587708 11.8751C0.642191 11.8388 0.696674 11.8206 0.751158 11.7843C2.11324 11.0397 3.47533 10.295 4.83742 9.55039C4.94638 9.49591 5.01903 9.49591 5.10984 9.56855C5.2188 9.65936 5.32777 9.73201 5.4549 9.82282C5.41858 9.8773 5.36409 9.89546 5.32777 9.91363C3.74775 10.7854 2.16773 11.639 0.605868 12.5107C0.496901 12.5652 0.424257 12.5834 0.333451 12.4926C0.260806 12.4199 0.170001 12.3655 0.0791949 12.311C0.0065503 12.2746 -0.0116108 12.2202 0.00655037 12.1475C0.079195 11.7116 0.15184 11.2939 0.206323 10.858C0.424257 9.47774 0.660352 8.09746 0.878286 6.71717C0.860125 6.66268 0.860125 6.6082 0.878286 6.55371Z" fill="#060606"/>
</g>
<defs>
<clipPath id="clip0_3637_6790">
<rect width="24" height="24" fill="white"/>
</clipPath>
</defs>
</svg>
