<svg width="24" height="24" viewBox="0 0 24 24" fill="none" xmlns="http://www.w3.org/2000/svg">
<path d="M11.9138 0.031311C5.82075 0.031311 6.201 2.67356 6.201 2.67356L6.2085 5.41106H12.0225V6.23231H3.89775C3.89775 6.23231 0 5.78981 0 11.9383C0 18.0853 3.40275 17.8678 3.40275 17.8678H5.43375V15.0148C5.43375 15.0148 5.32425 11.6121 8.7825 11.6121H14.5485C14.5485 11.6121 17.7885 11.6646 17.7885 8.48082V3.21656C17.7885 3.21656 18.2805 0.031311 11.9138 0.031311ZM8.7075 1.87181C9.28576 1.87181 9.75375 2.33981 9.75375 2.91806C9.75375 3.49631 9.28576 3.96431 8.7075 3.96431C8.57005 3.96451 8.43391 3.93758 8.30689 3.88507C8.17986 3.83256 8.06445 3.75551 7.96725 3.65831C7.87006 3.56112 7.793 3.4457 7.74049 3.31868C7.68798 3.19165 7.66106 3.05551 7.66125 2.91806C7.66125 2.33981 8.12925 1.87181 8.7075 1.87181Z" fill="url(#paint0_linear_3468_6586)"/>
<path d="M12.0867 23.9061C18.1797 23.9061 17.7994 21.2639 17.7994 21.2639L17.7919 18.5264H11.9779V17.7051H20.1019C20.1019 17.7051 24.0005 18.1476 24.0005 11.9999C24.0005 5.85211 20.5977 6.07036 20.5977 6.07036H18.5667V8.92261C18.5667 8.92261 18.6762 12.3254 15.2179 12.3254H9.45194C9.45194 12.3254 6.21194 12.2729 6.21194 15.4566V20.7209C6.21194 20.7209 5.71994 23.9061 12.0867 23.9061ZM15.2929 22.0656C15.1555 22.0658 15.0194 22.0389 14.8923 21.9864C14.7653 21.9339 14.6499 21.8568 14.5527 21.7596C14.4555 21.6624 14.3784 21.547 14.3259 21.42C14.2734 21.293 14.2465 21.1568 14.2467 21.0194C14.2467 20.4419 14.7147 19.9739 15.2929 19.9739C15.8712 19.9739 16.3392 20.4411 16.3392 21.0194C16.3392 21.5984 15.8712 22.0656 15.2929 22.0656Z" fill="url(#paint1_linear_3468_6586)"/>
<defs>
<linearGradient id="paint0_linear_3468_6586" x1="2.30625" y1="2.11781" x2="14.1735" y2="14.0248" gradientUnits="userSpaceOnUse">
<stop stop-color="#387EB8"/>
<stop offset="1" stop-color="#366994"/>
</linearGradient>
<linearGradient id="paint1_linear_3468_6586" x1="9.60719" y1="9.69286" x2="22.3527" y2="21.9036" gradientUnits="userSpaceOnUse">
<stop stop-color="#FFE052"/>
<stop offset="1" stop-color="#FFC331"/>
</linearGradient>
</defs>
</svg>
