<svg width="24" height="24" viewBox="0 0 24 24" fill="none" xmlns="http://www.w3.org/2000/svg">
<path d="M0.111478 10.2696C0.0542966 10.6703 0.0170915 11.0736 0 11.478H18.2298C18.1662 11.3537 18.0807 11.2415 17.9944 11.1318C14.8779 7.10542 13.2014 7.45452 10.8033 7.35224C10.0037 7.31935 9.46147 7.30615 6.27892 7.30615C4.57555 7.30615 2.72368 7.31048 0.920394 7.31525C0.686972 7.94536 0.461834 8.55614 0.352196 9.05295H9.6938V10.2696H0.111478ZM18.3735 12.6959H0.00937488C0.0286023 13.0205 0.0588756 13.3408 0.102581 13.6568H17.0572C17.813 13.6568 18.2361 13.228 18.3735 12.6959ZM1.05509 16.9758C1.05509 16.9758 3.86584 23.8773 11.9875 24C16.8417 24 21.0126 21.117 22.9072 16.9758H1.05509Z" fill="black"/>
<path d="M11.9882 0C7.49991 0 3.59418 2.46473 1.53166 6.10812C3.14346 6.10478 6.28258 6.10284 6.28258 6.10284L6.28329 6.10165C9.99368 6.10165 10.1316 6.11822 10.8564 6.14849L11.3052 6.16506C12.8685 6.21715 14.79 6.38498 16.3019 7.52888C17.1226 8.1493 18.3075 9.51864 19.0138 10.4942C19.6668 11.3966 19.8547 12.4338 19.4107 13.4276C19.002 14.341 18.1228 14.8858 17.058 14.8858H0.39209C0.39209 14.8858 0.491295 15.3064 0.640069 15.7706H23.3896C23.7934 14.5562 23.9999 13.285 24.0011 12.0052C24.0015 5.37557 18.623 0 11.9882 0Z" fill="black"/>
</svg>
