
<svg viewBox="0 0 300 300" fill="none" xmlns="http://www.w3.org/2000/svg">
  <rect width="300" height="300" rx="90" fill="#3A2234" />
  <path fill-rule="evenodd" clip-rule="evenodd" d="M218.107 161.962C237.99 161.962 254.107 178.08 254.107 197.962V223.877L268.968 237.862C272.925 241.586 270.289 248.231 264.856 248.231H254.107V248.232H96C76.1177 248.232 60 232.114 60 212.232V197.962C60 178.08 76.1177 161.962 96 161.962H218.107Z" fill="#F3F3F3"/>
  <path fill-rule="evenodd" clip-rule="evenodd" d="M83.0709 50C63.1887 50 47.0709 66.1177 47.0709 86V111.209L31.8381 125.96C27.9646 129.711 30.62 136.27 36.0121 136.27H90.2014C90.2221 136.27 90.2427 136.27 90.2632 136.27H203.74C223.623 136.27 239.74 120.152 239.74 100.27V86C239.74 66.1177 223.623 50 203.74 50H83.0709Z" fill="#F3F3F3"/>
</svg>
