
<svg
  class="relative w-full h-auto"
  width="1354"
  height="218"
  viewBox="0 0 1354 218"
  fill="none"
  xmlns="http://www.w3.org/2000/svg"
>
  <g style="mix-blend-mode: difference">
    <path
      d="M0.71211 213.599V0.598621H139.012V30.2986H33.1121V95.0986H133.612V123.899H33.1121V213.599H0.71211ZM210.63 217.199C177.63 217.199 156.03 201.299 156.03 173.699C156.03 146.399 172.23 131.699 207.03 124.799L261.93 114.299C261.93 89.6986 250.53 77.3986 227.73 77.3986C207.33 77.3986 195.93 86.6986 191.73 104.099L158.73 101.999C164.73 70.1986 189.63 50.3986 227.73 50.3986C270.93 50.3986 293.73 74.6986 293.73 116.099V178.199C293.73 185.999 296.43 188.399 302.43 188.399H308.13V213.599C306.03 214.199 300.93 214.499 296.43 214.499C278.13 214.499 267.33 207.599 264.63 188.999C256.53 205.799 235.53 217.199 210.63 217.199ZM216.03 191.999C244.53 191.999 261.93 173.999 261.93 148.499V138.299L215.43 147.299C196.23 150.899 189.03 158.399 189.03 170.699C189.03 184.499 198.93 191.999 216.03 191.999ZM389.789 217.199C344.789 217.199 320.489 194.699 318.089 163.199L351.089 161.699C353.789 179.399 365.189 190.499 389.789 190.499C409.589 190.499 422.189 184.499 422.189 170.399C422.189 158.699 416.189 153.599 384.089 148.199C336.689 139.799 321.989 125.999 321.989 99.8986C321.989 70.7986 344.489 50.3986 385.889 50.3986C426.689 50.3986 448.289 73.7986 452.789 102.899L420.089 104.699C417.089 88.1986 405.389 77.0986 385.589 77.0986C364.889 77.0986 354.989 86.0986 354.989 98.6986C354.989 112.799 364.589 118.499 390.689 122.699C440.189 130.799 455.189 143.999 455.189 170.099C455.189 200.099 427.889 217.199 389.789 217.199ZM532.776 213.599C502.476 213.599 488.376 200.399 488.376 170.399V80.0986H464.076V53.9986H488.376V16.4986H520.176V53.9986H562.476V80.0986H520.176V167.999C520.176 182.999 526.476 187.499 539.676 187.499H562.476V213.599H532.776ZM588.009 213.599V0.598621H620.409V91.7986H718.809V0.598621H751.209V213.599H718.809V121.199H620.409V213.599H588.009ZM839.655 213.599V30.2986H774.255V0.598621H937.455V30.2986H872.055V213.599H839.655ZM960.466 213.599V0.598621H1004.87L1068.17 175.499L1131.47 0.598621H1175.87V213.599H1143.47V57.5986L1086.17 213.299H1050.17L992.866 57.5986V213.599H960.466ZM1216.86 213.599V0.598621H1249.26V183.899H1353.06V213.599H1216.86Z"
      fill="white"
      fill-opacity="0.8"
    />
  </g>
</svg>
