<svg width="140" height="20" viewBox="0 0 140 20" fill="none" xmlns="http://www.w3.org/2000/svg">
<path d="M2.58764 0.677903C3.06746 0.2417 3.69265 -1.76692e-07 4.34111 0L17.6963 3.63901e-06C19.136 4.03128e-06 20.303 1.16707 20.303 2.60672V15.174C20.303 15.7489 20.113 16.3077 19.7625 16.7633L18.0553 18.9826C17.5619 19.6241 16.7985 20 15.9892 20H2.60671C1.16707 20 0 18.8329 0 17.3933V4.18344C0 3.44901 0.309814 2.74866 0.853246 2.25463L2.58764 0.677903Z" fill="#060606"/>
<rect x="3.93945" y="1.51562" width="14.8485" height="13.9394" rx="1.51515" fill="white"/>
<path d="M8.35252 12.4424V4.33475H14.2791V6.12756H10.5907V7.58922H14.0735V9.37062H10.5907V12.4424H8.35252Z" fill="#060606"/>
<path d="M28.9706 18.3037V1.11553H40.1308V3.51219H31.5852V8.74127H39.6951V11.0653H31.5852V18.3037H28.9706ZM45.9101 18.5942C43.2471 18.5942 41.5041 17.3112 41.5041 15.084C41.5041 12.881 42.8114 11.6947 45.6196 11.1379L50.0498 10.2906C50.0498 8.30552 49.1299 7.31296 47.29 7.31296C45.6438 7.31296 44.7239 8.06343 44.3849 9.46753L41.722 9.29807C42.2062 6.73195 44.2155 5.13418 47.29 5.13418C50.776 5.13418 52.6159 7.09508 52.6159 10.4359V15.4471C52.6159 16.0765 52.8338 16.2702 53.318 16.2702H53.7779V18.3037C53.6085 18.3521 53.1969 18.3763 52.8338 18.3763C51.3571 18.3763 50.4855 17.8195 50.2677 16.3186C49.614 17.6743 47.9194 18.5942 45.9101 18.5942ZM46.3459 16.5607C48.6457 16.5607 50.0498 15.1082 50.0498 13.0504V12.2273L46.2974 12.9536C44.7481 13.2441 44.1671 13.8493 44.1671 14.8419C44.1671 15.9555 44.966 16.5607 46.3459 16.5607ZM60.3674 18.5942C56.7361 18.5942 54.7752 16.7786 54.5815 14.2366L57.2445 14.1156C57.4624 15.5439 58.3823 16.4396 60.3674 16.4396C61.9652 16.4396 62.982 15.9555 62.982 14.8177C62.982 13.8735 62.4978 13.462 59.9075 13.0262C56.0825 12.3484 54.8963 11.2348 54.8963 9.12861C54.8963 6.78037 56.7119 5.13418 60.0527 5.13418C63.3451 5.13418 65.0881 7.02245 65.4512 9.3707L62.8125 9.51595C62.5704 8.18447 61.6263 7.28875 60.0285 7.28875C58.3581 7.28875 57.5592 8.01501 57.5592 9.03178C57.5592 10.1696 58.3339 10.6296 60.44 10.9685C64.4345 11.6221 65.6449 12.6873 65.6449 14.7934C65.6449 17.2143 63.4419 18.5942 60.3674 18.5942ZM71.9059 18.3037C69.4608 18.3037 68.323 17.2385 68.323 14.8177V7.53084H66.3621V5.42468H68.323V2.39859H70.8891V5.42468H74.3026V7.53084H70.8891V14.624C70.8891 15.8344 71.3975 16.1976 72.4627 16.1976H74.3026V18.3037H71.9059ZM76.3629 18.3037V1.11553H78.9775V8.47498H86.9179V1.11553H89.5325V18.3037H86.9179V10.8474H78.9775V18.3037H76.3629ZM96.6697 18.3037V3.51219H91.3922V1.11553H104.562V3.51219H99.2842V18.3037H96.6697ZM106.419 18.3037V1.11553H110.002L115.11 15.2292L120.218 1.11553H123.8V18.3037H121.186V5.71518L116.562 18.2795H113.657L109.033 5.71518V18.3037H106.419ZM127.109 18.3037V1.11553H129.723V15.907H138.099V18.3037H127.109Z" fill="#060606"/>
</svg>
