<svg
viewBox="0 0 300 300"
fill="none"
xmlns="http://www.w3.org/2000/svg"
>
<rect width="300" height="300" rx="90" fill="#3CDD8C" />
<g
    class="group-hover:rotate-[20deg] origin-center transition-all ease-in-out duration-600"
>
    <path
    fill-rule="evenodd"
    clip-rule="evenodd"
    d="M121.413 103.886C127.618 98.9484 135.465 96 143.998 96C144.535 96 145.467 96.0051 146.529 96.0581C146.917 96.0775 147.499 96.1115 148.207 96.1765C152.899 95.7924 158.425 96.0931 164.294 97.9575C171.89 100.371 177.616 104.625 181.656 108.91C185.327 112.805 187.531 116.653 188.565 118.555C189.133 119.598 189.596 120.531 189.871 121.088C189.982 121.313 190.059 121.471 190.117 121.588C190.177 121.696 190.247 121.82 190.326 121.961C190.813 122.827 191.886 124.756 192.921 127.14C193.781 129.12 195.714 133.837 196.32 139.986C196.93 146.171 196.587 159.647 185.444 170.834C179.128 177.175 172.226 179.607 168.863 180.572C167.344 181.007 165.909 181.32 164.609 181.546C162.19 182.596 159.983 183.327 158.21 183.839C153.779 185.117 148.437 186.053 142.661 185.998C137.412 185.947 128.25 185.048 119.141 179.331C109.413 173.226 102.602 163.337 100.511 151.703C97.4878 141.289 99.4251 131.64 102.597 124.74C106.649 115.927 112.914 110.375 115.808 107.989C117.682 106.444 119.584 105.074 121.413 103.886Z"
    fill="#F3F3F3"
    />
    <path
    fill-rule="evenodd"
    clip-rule="evenodd"
    d="M113.151 52.2705C121.821 50.4112 142.435 48.3661 159.753 63.7076C163.942 67.4186 167.346 71.6063 169.97 76.0996C174.787 81.5777 179.957 89.9057 181.24 101.409C183.521 121.872 170.573 140.524 151.415 146.129C146.145 149.936 140.269 153.092 134.131 155.318C127.187 157.837 112.959 161.691 97.2405 156.208C70.8414 146.999 67.9541 121.76 67.6088 116.539C67.0984 108.822 68.5078 102.157 69.2631 98.9627C70.8754 92.1452 73.5555 85.0916 75.7533 80.8021C77.9305 76.5528 80.5109 72.8901 83.3649 69.7502C91.2792 59.7295 101.272 55.8904 104.448 54.7253C108.401 53.2752 112.04 52.5056 113.012 52.3001C113.067 52.2884 113.114 52.2786 113.151 52.2705Z"
    fill="#F3F3F3"
    />
    <path
    fill-rule="evenodd"
    clip-rule="evenodd"
    d="M245.218 78.1345C253.459 88.738 254.548 100.132 254.838 104.266C255.521 114.008 253.998 123.99 251.196 132.671C248.561 140.835 243.153 152.946 232.087 162.349C228.662 165.259 217.007 174.306 199.735 172.18C192.38 171.274 186.452 168.703 181.756 165.534C171.992 160.48 164.898 152.038 161.081 143.089C157.304 134.235 156.196 125.124 156.025 118.479C155.861 112.08 156.394 101.891 160.714 91.7201C166.275 78.6284 176.838 71.2104 186.284 68.0503C187.522 67.6362 188.733 67.2946 189.907 67.0143C193.102 65.3086 198.259 63.015 204.652 62.019C209.87 61.2059 217.202 61.0434 225.287 63.8308C233.743 66.7464 240.463 72.016 245.218 78.1345Z"
    fill="#F3F3F3"
    />
    <path
    fill-rule="evenodd"
    clip-rule="evenodd"
    d="M231.432 161.821C236.556 169.59 237.781 177.01 238.178 180.319C238.637 184.137 238.507 187.312 238.382 189.124C237.459 202.523 231.533 213.365 227.384 219.612C222.912 226.347 216.554 233.631 208.661 239.175C196.091 248.005 179.263 252.029 162.197 246.408C147.936 241.711 139.249 232.087 134.871 226.226C126.213 214.636 121.451 200.295 120.253 189.523C117.724 166.806 134.462 146.381 157.638 143.903C164.472 143.172 171.103 144.084 177.121 146.315C181.319 144.478 189.924 141.44 200.916 142.872C214.585 144.652 225.225 152.41 231.432 161.821ZM203.958 178.872C203.961 178.879 203.963 178.882 203.964 178.881C203.964 178.881 203.962 178.874 203.956 178.861C203.957 178.865 203.958 178.869 203.958 178.872ZM168.693 184.508L168.581 184.356L168.693 184.508Z"
    fill="#F3F3F3"
    />
    <path
    fill-rule="evenodd"
    clip-rule="evenodd"
    d="M123.032 108.159C122.979 108.144 122.921 108.128 122.854 108.109C122.553 108.025 122.058 107.887 120.976 107.595L120.938 107.585C118.019 106.797 110.823 104.856 101.955 105.008C93.1689 105.16 86.3268 107.794 82.2191 109.803C78.0764 111.829 74.9757 114.082 73.2479 115.413C71.5885 116.692 70.1658 117.938 69.6372 118.402C69.6061 118.429 69.5781 118.453 69.5534 118.475C69.5012 118.521 69.4541 118.562 69.4118 118.599C56.5619 128.825 52.6795 142.841 51.4808 147.654C49.8026 154.391 48.9084 162.632 49.9386 170.712C52.4183 190.161 65.4495 201.334 72.3427 206.065C79.6831 211.104 87.1066 213.809 91.1129 215.119C104.237 219.407 115.445 216.837 119.981 215.602C122.293 214.972 124.3 214.263 125.045 214C125.083 213.987 125.117 213.974 125.149 213.963C125.213 213.941 125.272 213.92 125.326 213.901C127.414 213.33 134.165 211.403 140.632 207.347C149.114 202.027 153.986 195.366 156.49 191.684C165.293 178.737 165.574 162.659 158.629 149.812C159.267 129.208 144.027 111.189 123.032 108.159ZM123.544 108.293C123.54 108.292 123.536 108.291 123.532 108.29C123.565 108.297 123.57 108.299 123.544 108.293ZM98.4957 186.367C98.3612 186.338 98.2884 186.32 98.2857 186.318C98.283 186.316 98.3503 186.33 98.4957 186.367Z"
    fill="#F3F3F3"
    />
    <path
    fill-rule="evenodd"
    clip-rule="evenodd"
    d="M187.145 121.565C193.763 128.3 194.637 135.537 194.87 138.162C195.418 144.35 194.195 150.69 191.945 156.203C189.83 161.388 185.487 169.08 176.6 175.052C173.85 176.901 164.491 182.647 150.621 181.297C144.714 180.722 139.954 179.088 136.183 177.076C128.342 173.866 122.645 168.504 119.58 162.82C116.547 157.197 115.657 151.41 115.52 147.189C115.388 143.125 115.816 136.654 119.286 130.194C123.751 121.879 132.234 117.167 139.819 115.16C140.813 114.897 141.785 114.68 142.729 114.502C145.294 113.419 149.435 111.962 154.569 111.33C158.759 110.813 164.647 110.71 171.139 112.48C177.93 114.332 183.326 117.679 187.145 121.565Z"
    fill="#3CDD8C"
    />
</g>
</svg>